<?xml version="1.0" encoding="utf-8"?>
<!-- Generator: Adobe Illustrator 25.1.0, SVG Export Plug-In . SVG Version: 6.00 Build 0)  -->
<svg version="1.1" id="Layer_1" xmlns="http://www.w3.org/2000/svg" xmlns:xlink="http://www.w3.org/1999/xlink" x="0px" y="0px"
	 viewBox="0 0 250 250" style="enable-background:new 0 0 250 250;" xml:space="preserve">
<style type="text/css">
	.st0{fill:#EA9323;}
	.st1{fill:#EF9629;}
	.st2{fill:#F7AC1A;}
	.st3{opacity:0.6;fill:#F7AC1A;enable-background:new    ;}
	.st4{opacity:0.8;fill:#F7AC1A;enable-background:new    ;}
	.st5{fill:#E1A74E;}
</style>
<path class="st0" d="M71.7,188.6c0,10.3-8.4,18.7-18.7,18.7s-18.7-8.4-18.7-18.7c0-10.3,8.4-18.7,18.7-18.7
	C63.3,170,71.7,178.3,71.7,188.6z"/>
<path class="st1" d="M120.1,188.6c0,8.9-7.3,16.2-16.2,16.2s-16.2-7.3-16.2-16.2s7.3-16.2,16.2-16.2
	C112.9,172.5,120.1,179.7,120.1,188.6z"/>
<path class="st2" d="M169.7,188.6c0,8.3-6.7,14.9-14.9,14.9s-14.9-6.7-14.9-14.9c0-8.3,6.7-14.9,14.9-14.9S169.7,180.4,169.7,188.6z
	"/>
<path class="st3" d="M218.1,188.6c0,6.9-5.6,12.4-12.4,12.4s-12.4-5.6-12.4-12.4s5.6-12.4,12.4-12.4
	C212.5,176.2,218.1,181.7,218.1,188.6z"/>
<path class="st1" d="M85,144.1c0,8.9-7.3,16.2-16.2,16.2s-16.2-7.3-16.2-16.2s7.3-16.2,16.2-16.2C77.8,127.9,85,135.1,85,144.1z"/>
<path class="st2" d="M127,144.1c0,7.6-6.1,13.7-13.7,13.7c-7.6,0-13.7-6.1-13.7-13.7c0-7.6,6.1-13.7,13.7-13.7
	C120.9,130.4,127,136.5,127,144.1z"/>
<path class="st4" d="M162.8,144.1c0,6.2-5,11.2-11.2,11.2c-6.2,0-11.2-5-11.2-11.2c0-6.2,5-11.2,11.2-11.2
	C157.8,132.9,162.8,137.9,162.8,144.1z"/>
<path class="st3" d="M199.8,144.1c0,5.5-4.5,10-10,10c-5.5,0-10-4.5-10-10c0-5.5,4.5-10,10-10C195.3,134.1,199.8,138.6,199.8,144.1z
	"/>
<path class="st2" d="M103.7,99.8c0,7.6-6.1,13.7-13.7,13.7c-7.6,0-13.7-6.1-13.7-13.7c0-7.6,6.1-13.7,13.7-13.7
	C97.6,86.1,103.7,92.3,103.7,99.8z"/>
<path class="st4" d="M140.5,99.8c0,6.2-5,11.2-11.2,11.2c-6.2,0-11.2-5-11.2-11.2c0-6.2,5-11.2,11.2-11.2
	C135.5,88.6,140.5,93.6,140.5,99.8z"/>
<path class="st3" d="M177.3,99.8c0,4.8-3.9,8.7-8.7,8.7s-8.7-3.9-8.7-8.7s3.9-8.7,8.7-8.7S177.3,95,177.3,99.8z"/>
<path class="st4" d="M121.1,55.8c0,6.2-5,11.2-11.2,11.2c-6.2,0-11.2-5-11.2-11.2s5-11.2,11.2-11.2
	C116.1,44.6,121.1,49.6,121.1,55.8z"/>
<path class="st3" d="M156.2,55.8c0,4.1-3.4,7.5-7.5,7.5s-7.5-3.4-7.5-7.5c0-4.1,3.4-7.5,7.5-7.5C152.9,48.3,156.2,51.7,156.2,55.8z"
	/>
<path class="st3" d="M138,12c0,4.8-3.9,8.7-8.7,8.7c-4.8,0-8.7-3.9-8.7-8.7s3.9-8.7,8.7-8.7C134.2,3.3,138,7.2,138,12z"/>
<path class="st5" d="M8,230.9c1,0.6,1.8,1,2.5,1.3c0.7,0.2,1.4,0.4,2,0.4c0.7,0,1.2-0.1,1.6-0.4c0.4-0.3,0.6-0.7,0.6-1.1
	c0-0.6-0.7-1.4-2.1-2.2c-0.2-0.1-0.4-0.2-0.5-0.3l-1.2-0.7c-1-0.6-1.8-1.3-2.3-2c-0.5-0.8-0.7-1.6-0.7-2.5c0-1.3,0.5-2.3,1.4-3.1
	c0.9-0.8,2.2-1.2,3.7-1.2c0.6,0,1.2,0.1,1.8,0.2c0.7,0.1,1.4,0.3,2.2,0.6v3.7c-0.7-0.6-1.4-0.9-2.1-1.2s-1.3-0.4-1.8-0.4
	c-0.5,0-1,0.1-1.3,0.3s-0.5,0.5-0.5,0.9c0,0.3,0.1,0.5,0.3,0.8s0.5,0.5,0.8,0.7l1.9,1c1.6,0.9,2.6,1.7,3.1,2.4
	c0.5,0.7,0.8,1.6,0.8,2.6c0,1.5-0.5,2.8-1.6,3.8c-1.1,1-2.5,1.4-4.2,1.4c-0.6,0-1.2-0.1-1.9-0.2c-0.7-0.1-1.5-0.3-2.3-0.6L8,230.9z"
	/>
<path class="st5" d="M21,235.4v-15.7h9.7v3.3h-6v2.9h5.1v3.3h-5.1v3.1h6.1v3.3C30.8,235.4,21,235.4,21,235.4z"/>
<path class="st5" d="M39,236h-0.3l-7.4-16.3h4l3.7,8.6l3.8-8.6h3.7L39,236z"/>
<path class="st5" d="M47.6,235.4v-15.7h9.7v3.3h-6v2.9h5.1v3.3h-5.1v3.1h6.1v3.3C57.4,235.4,47.6,235.4,47.6,235.4z"/>
<path class="st5" d="M60.3,235.4v-16.2h0.4l9.8,9.2v-8.7h3.5V236h-0.3l-9.9-9.2v8.6H60.3z"/>
<path class="st5" d="M83.3,230.9c1,0.6,1.8,1,2.5,1.3c0.7,0.2,1.4,0.4,2,0.4c0.7,0,1.2-0.1,1.6-0.4c0.4-0.3,0.6-0.7,0.6-1.1
	c0-0.6-0.7-1.4-2.1-2.2c-0.2-0.1-0.4-0.2-0.5-0.3l-1.2-0.7c-1-0.6-1.8-1.3-2.3-2c-0.5-0.7-0.8-1.6-0.8-2.5c0-1.3,0.5-2.3,1.4-3.1
	c0.9-0.8,2.2-1.2,3.7-1.2c0.6,0,1.2,0.1,1.8,0.2c0.7,0.1,1.4,0.3,2.2,0.6v3.7c-0.8-0.5-1.5-0.9-2.2-1.1c-0.7-0.3-1.3-0.4-1.8-0.4
	s-1,0.1-1.3,0.3c-0.3,0.2-0.5,0.5-0.5,0.9c0,0.3,0.1,0.5,0.3,0.8s0.5,0.5,0.8,0.7l1.9,1c1.6,0.9,2.6,1.7,3.1,2.4
	c0.5,0.7,0.8,1.6,0.8,2.6c0,1.5-0.5,2.8-1.6,3.8c-1.1,1-2.5,1.4-4.2,1.4c-0.6,0-1.2-0.1-1.9-0.2c-0.7-0.1-1.5-0.3-2.3-0.6V230.9z"/>
<path class="st5" d="M99.7,219.6v8.6c0,1.4,0.3,2.5,0.8,3.2s1.3,1,2.3,1c1,0,1.8-0.3,2.3-1c0.5-0.7,0.8-1.6,0.8-2.8v-9h3.4v9
	c0,2.3-0.6,4.1-1.8,5.3c-1.2,1.3-2.8,1.9-4.8,1.9s-3.8-0.6-4.8-1.9s-1.7-3-1.7-5.2v-9L99.7,219.6L99.7,219.6z"/>
<path class="st5" d="M111.4,235.4l3.3-16.2h0.3l5.9,10.2l5.6-10.2h0.3l3.3,16.2h-3.6l-1.3-7.2l-4.3,7.7h-0.3l-4.6-7.8l-1.4,7.3
	H111.4z"/>
<path class="st5" d="M131,235.4l3.3-16.2h0.3l5.9,10.2l5.6-10.2h0.3l3.3,16.2h-3.6l-1.3-7.2l-4.3,7.7h-0.3l-4.6-7.8l-1.4,7.3H131z"
	/>
<path class="st5" d="M151.9,235.4v-15.7h3.8v15.7C155.7,235.4,151.9,235.4,151.9,235.4z"/>
<path class="st5" d="M162.6,235.4v-12.5h-5v-3.3h13.8v3.3h-4.9v12.5H162.6z"/>
<path class="st5" d="M182.7,235.4v-12.5h-5v-3.3h13.8v3.3h-4.9v12.5H182.7z"/>
<path class="st5" d="M193.3,235.4v-15.7h4.1c1.3,0,2.3,0.1,3,0.3s1.4,0.5,1.9,0.9c0.6,0.4,1,0.9,1.4,1.6s0.5,1.3,0.5,2
	c0,1-0.3,1.9-0.8,2.6c-0.5,0.7-1.2,1.3-2.2,1.8l4.8,6.7h-4.3l-4.2-6.1H197v6.1L193.3,235.4L193.3,235.4z M197.6,222.5H197v4.4h0.8
	c1,0,1.7-0.2,2.2-0.6c0.5-0.4,0.8-0.9,0.8-1.7s-0.2-1.3-0.7-1.6C199.4,222.7,198.6,222.5,197.6,222.5z"/>
<path class="st5" d="M207.5,235.4v-15.7h9.7v3.3h-6v2.9h5.1v3.3h-5.1v3.1h6.1v3.3C217.2,235.4,207.5,235.4,207.5,235.4z"/>
<path class="st5" d="M220,235.4v-15.7h3.7v6.8l5.1-6.8h4.5l-5.9,7.5l6.4,8.2h-4.6l-5.6-7.2v7.2C223.6,235.4,220,235.4,220,235.4z"/>
<path class="st5" d="M234.5,230.9c1,0.6,1.8,1,2.5,1.3c0.7,0.2,1.3,0.4,2,0.4s1.2-0.1,1.6-0.4c0.4-0.3,0.6-0.7,0.6-1.1
	c0-0.6-0.7-1.4-2.1-2.2c-0.2-0.1-0.4-0.2-0.5-0.3l-1.1-0.6c-1-0.6-1.8-1.3-2.3-2s-0.8-1.6-0.8-2.5c0-1.3,0.5-2.3,1.4-3.1
	c1-0.8,2.2-1.2,3.7-1.2c0.6,0,1.2,0.1,1.8,0.2c0.7,0.1,1.4,0.3,2.2,0.6v3.7c-0.8-0.5-1.5-0.9-2.2-1.1c-0.7-0.3-1.3-0.4-1.8-0.4
	s-1,0.1-1.3,0.3c-0.3,0.2-0.5,0.5-0.5,0.9c0,0.3,0.1,0.5,0.3,0.8c0.2,0.3,0.5,0.5,0.8,0.7l1.9,1c1.6,0.9,2.6,1.7,3.1,2.4
	c0.5,0.7,0.8,1.6,0.8,2.6c0,1.5-0.5,2.8-1.6,3.8c-1.1,1-2.5,1.4-4.2,1.4c-0.6,0-1.2-0.1-1.9-0.2c-0.7-0.1-1.5-0.3-2.3-0.6
	L234.5,230.9z"/>
</svg>
