<?xml version="1.0" encoding="utf-8"?>
<!-- Generator: Adobe Illustrator 24.0.0, SVG Export Plug-In . SVG Version: 6.00 Build 0)  -->
<svg version="1.1" id="Layer_1" xmlns="http://www.w3.org/2000/svg" xmlns:xlink="http://www.w3.org/1999/xlink" x="0px" y="0px"
	 viewBox="0 0 60.92 53.21" style="enable-background:new 0 0 60.92 53.21;" xml:space="preserve">
<style type="text/css">
	.st0{fill:#EA9323;}
	.st1{fill:#EF9629;}
	.st2{fill:#F7AC1A;}
	.st3{opacity:0.6;fill:#F7AC1A;enable-background:new    ;}
	.st4{opacity:0.8;fill:#F7AC1A;enable-background:new    ;}
</style>
<g>
	<path class="st0" d="M7.63,11.31c-2.89,0-5.23-2.34-5.23-5.23s2.34-5.23,5.23-5.23c2.89,0,5.23,2.34,5.23,5.23
		C12.85,8.97,10.51,11.31,7.63,11.31z"/>
	<path class="st1" d="M7.63,24.85c-2.5,0-4.53-2.03-4.53-4.53c0-2.5,2.03-4.53,4.53-4.53c2.5,0,4.53,2.03,4.53,4.53
		C12.15,22.83,10.13,24.85,7.63,24.85z"/>
	<path class="st2" d="M7.63,38.74c-2.31,0-4.18-1.87-4.18-4.18s1.87-4.18,4.18-4.18c2.31,0,4.18,1.87,4.18,4.18
		C11.81,36.87,9.93,38.74,7.63,38.74z"/>
	<path class="st3" d="M7.63,52.28c-1.92,0-3.48-1.56-3.48-3.48c0-1.92,1.56-3.48,3.48-3.48s3.48,1.56,3.48,3.48
		C11.11,50.72,9.55,52.28,7.63,52.28z"/>
</g>
<g>
	<path class="st1" d="M20.1,15.04c-2.5,0-4.53-2.03-4.53-4.53c0-2.5,2.03-4.53,4.53-4.53c2.5,0,4.53,2.03,4.53,4.53
		C24.63,13.01,22.6,15.04,20.1,15.04z"/>
	<path class="st2" d="M20.1,26.79c-2.12,0-3.83-1.72-3.83-3.83c0-2.12,1.72-3.83,3.83-3.83c2.12,0,3.83,1.71,3.83,3.83
		C23.93,25.07,22.21,26.79,20.1,26.79z"/>
	<path class="st4" d="M20.1,36.8c-1.73,0-3.14-1.4-3.14-3.14c0-1.73,1.4-3.14,3.14-3.14c1.73,0,3.14,1.4,3.14,3.14
		C23.23,35.4,21.83,36.8,20.1,36.8z"/>
	<path class="st3" d="M20.1,47.17c-1.54,0-2.79-1.25-2.79-2.79s1.25-2.79,2.79-2.79c1.54,0,2.79,1.25,2.79,2.79
		C22.88,45.92,21.64,47.17,20.1,47.17z"/>
</g>
<g>
	<path class="st2" d="M32.48,20.28c-2.12,0-3.83-1.72-3.83-3.83c0-2.12,1.72-3.83,3.83-3.83c2.12,0,3.83,1.71,3.83,3.83
		C36.31,18.57,34.6,20.28,32.48,20.28z"/>
	<path class="st4" d="M32.48,30.58c-1.73,0-3.14-1.4-3.14-3.14c0-1.73,1.4-3.14,3.14-3.14c1.73,0,3.14,1.4,3.14,3.14
		C35.62,29.17,34.21,30.58,32.48,30.58z"/>
	<path class="st3" d="M32.48,40.87c-1.35,0-2.44-1.09-2.44-2.44c0-1.35,1.09-2.44,2.44-2.44c1.35,0,2.44,1.09,2.44,2.44
		S33.83,40.87,32.48,40.87z"/>
</g>
<g>
	<path class="st4" d="M44.81,25.14c-1.73,0-3.14-1.4-3.14-3.14c0-1.73,1.4-3.14,3.14-3.14s3.14,1.4,3.14,3.14
		C47.94,23.74,46.54,25.14,44.81,25.14z"/>
	<path class="st3" d="M44.81,34.97c-1.16,0-2.09-0.94-2.09-2.09s0.94-2.09,2.09-2.09c1.16,0,2.09,0.94,2.09,2.09
		C46.9,34.03,45.96,34.97,44.81,34.97z"/>
</g>
<path class="st3" d="M57.07,29.88c-1.35,0-2.44-1.09-2.44-2.44c0-1.35,1.09-2.44,2.44-2.44c1.35,0,2.44,1.09,2.44,2.44
	C59.51,28.79,58.41,29.88,57.07,29.88z"/>
</svg>
