<?xml version="1.0" encoding="utf-8"?>
<!-- Generator: Adobe Illustrator 22.0.1, SVG Export Plug-In . SVG Version: 6.00 Build 0)  -->
<svg version="1.1" id="Layer_1" xmlns="http://www.w3.org/2000/svg" xmlns:xlink="http://www.w3.org/1999/xlink" x="0px" y="0px"
	 viewBox="0 0 250 100" style="enable-background:new 0 0 250 100;" xml:space="preserve">
<style type="text/css">
	.st0{enable-background:new    ;}
	.st1{fill:#E1A74E;}
	.st2{fill:#EDAB54;}
	.st3{fill:#D0B274;}
</style>
<g class="st0">
	<path class="st1" d="M2.1,93.2c1,0.6,1.8,1,2.5,1.3c0.7,0.2,1.4,0.4,2,0.4c0.7,0,1.2-0.1,1.6-0.4s0.6-0.7,0.6-1.1
		c0-0.6-0.7-1.4-2.1-2.2c-0.2-0.1-0.4-0.2-0.5-0.3L5,90.2c-1-0.6-1.8-1.3-2.3-2C2.2,87.4,2,86.6,2,85.7c0-1.3,0.5-2.3,1.4-3.1
		s2.2-1.2,3.7-1.2c0.6,0,1.2,0.1,1.8,0.2c0.7,0.1,1.4,0.3,2.2,0.6v3.7C10.4,85.3,9.7,85,9,84.7s-1.3-0.4-1.8-0.4s-1,0.1-1.3,0.3
		c-0.3,0.2-0.5,0.5-0.5,0.9c0,0.3,0.1,0.5,0.3,0.8s0.5,0.5,0.8,0.7l1.9,1c1.6,0.9,2.6,1.7,3.1,2.4s0.8,1.6,0.8,2.6
		c0,1.5-0.5,2.8-1.6,3.8s-2.5,1.4-4.2,1.4c-0.6,0-1.2-0.1-1.9-0.2s-1.5-0.3-2.3-0.6L2.1,93.2z"/>
	<path class="st1" d="M15.2,97.7V81.8H25v3.3h-6.1V88h5.2v3.3h-5.2v3.1h6.2v3.3C25.1,97.7,15.2,97.7,15.2,97.7z"/>
	<path class="st1" d="M33.4,98.3h-0.3l-7.5-16.5h4l3.7,8.7l3.8-8.7h3.7L33.4,98.3z"/>
	<path class="st1" d="M42.1,97.7V81.8h9.8v3.3h-6.1V88H51v3.3h-5.2v3.1H52v3.3C52,97.7,42.1,97.7,42.1,97.7z"/>
	<path class="st1" d="M54.9,97.7V81.3h0.4l9.9,9.3v-8.8h3.5v16.5h-0.3l-10-9.3v8.7H54.9z"/>
	<path class="st1" d="M78.1,93.2c1,0.6,1.8,1,2.5,1.3c0.7,0.2,1.4,0.4,2,0.4c0.7,0,1.2-0.1,1.6-0.4s0.6-0.7,0.6-1.1
		c0-0.6-0.7-1.4-2.1-2.2c-0.2-0.1-0.4-0.2-0.5-0.3L81,90.2c-1-0.6-1.8-1.3-2.3-2s-0.8-1.6-0.8-2.5c0-1.3,0.5-2.3,1.4-3.1
		s2.2-1.2,3.7-1.2c0.6,0,1.2,0.1,1.8,0.2c0.7,0.1,1.4,0.3,2.2,0.6v3.7c-0.8-0.5-1.5-0.9-2.2-1.1c-0.7-0.3-1.3-0.4-1.8-0.4
		s-1,0.1-1.3,0.3c-0.3,0.2-0.5,0.5-0.5,0.9c0,0.3,0.1,0.5,0.3,0.8s0.5,0.5,0.8,0.7l1.9,1c1.6,0.9,2.6,1.7,3.1,2.4s0.8,1.6,0.8,2.6
		c0,1.5-0.5,2.8-1.6,3.8s-2.5,1.4-4.2,1.4c-0.6,0-1.2-0.1-1.9-0.2c-0.7-0.1-1.5-0.3-2.3-0.6V93.2z"/>
	<path class="st1" d="M94.7,81.8v8.7c0,1.4,0.3,2.5,0.8,3.2s1.3,1,2.3,1s1.8-0.3,2.3-1s0.8-1.6,0.8-2.8v-9.1h3.4v9.1
		c0,2.3-0.6,4.1-1.8,5.4s-2.8,1.9-4.9,1.9s-3.8-0.6-4.9-1.9C91.6,95,91,93.3,91,91v-9.1L94.7,81.8L94.7,81.8z"/>
	<path class="st1" d="M106.5,97.7l3.3-16.4h0.3l6,10.3l5.7-10.3h0.3l3.3,16.4h-3.6l-1.3-7.3l-4.3,7.8h-0.3l-4.6-7.9l-1.4,7.4H106.5z
		"/>
	<path class="st1" d="M126.3,97.7l3.3-16.4h0.3l6,10.3l5.7-10.3h0.3l3.3,16.4h-3.6l-1.3-7.3l-4.3,7.8h-0.3l-4.6-7.9l-1.4,7.4H126.3z
		"/>
	<path class="st1" d="M147.5,97.7V81.8h3.8v15.9C151.3,97.7,147.5,97.7,147.5,97.7z"/>
	<path class="st1" d="M158.3,97.7V85.1h-5.1v-3.3h13.9v3.3h-5v12.6H158.3z"/>
	<path class="st1" d="M178.6,97.7V85.1h-5.1v-3.3h13.9v3.3h-5v12.6H178.6z"/>
	<path class="st1" d="M189.3,97.7V81.8h4.1c1.3,0,2.3,0.1,3,0.3s1.4,0.5,1.9,0.9c0.6,0.4,1,0.9,1.4,1.6s0.5,1.3,0.5,2
		c0,1-0.3,1.9-0.8,2.6s-1.2,1.3-2.2,1.8l4.8,6.8h-4.3l-4.2-6.2H193v6.2h-3.7V97.7z M193.6,84.7H193v4.4h0.8c1,0,1.7-0.2,2.2-0.6
		s0.8-0.9,0.8-1.7c0-0.8-0.2-1.3-0.7-1.6C195.5,84.9,194.7,84.7,193.6,84.7z"/>
	<path class="st1" d="M203.6,97.7V81.8h9.8v3.3h-6.1V88h5.2v3.3h-5.2v3.1h6.2v3.3C213.5,97.7,203.6,97.7,203.6,97.7z"/>
	<path class="st1" d="M216.3,97.7V81.8h3.7v6.9l5.2-6.9h4.5l-6,7.6l6.5,8.3h-4.6l-5.7-7.3v7.3C219.9,97.7,216.3,97.7,216.3,97.7z"/>
	<path class="st1" d="M230.9,93.2c1,0.6,1.8,1,2.5,1.3c0.7,0.2,1.3,0.4,2,0.4s1.2-0.1,1.6-0.4c0.4-0.3,0.6-0.7,0.6-1.1
		c0-0.6-0.7-1.4-2.1-2.2c-0.2-0.1-0.4-0.2-0.5-0.3l-1.1-0.6c-1-0.6-1.8-1.3-2.3-2s-0.8-1.6-0.8-2.5c0-1.3,0.5-2.3,1.4-3.1
		c1-0.8,2.2-1.2,3.7-1.2c0.6,0,1.2,0.1,1.8,0.2c0.7,0.1,1.4,0.3,2.2,0.6V86c-0.8-0.5-1.5-0.9-2.2-1.1c-0.7-0.3-1.3-0.4-1.8-0.4
		s-1,0.1-1.3,0.3s-0.5,0.5-0.5,0.9c0,0.3,0.1,0.5,0.3,0.8s0.5,0.5,0.8,0.7l1.9,1c1.6,0.9,2.6,1.7,3.1,2.4c0.5,0.7,0.8,1.6,0.8,2.6
		c0,1.5-0.5,2.8-1.6,3.8s-2.5,1.4-4.2,1.4c-0.6,0-1.2-0.1-1.9-0.2s-1.5-0.3-2.3-0.6L230.9,93.2z"/>
</g>
<path class="st2" d="M110.4,39.4l11.1-10.5c-0.5-6.2-5.7-11.1-12.1-11.1c-6,0-11,4.4-11.9,10.2L110.4,39.4z"/>
<g>
	<g>
		<path class="st2" d="M89.5,19.8c0,0,1.1,0.2,2.2,0.4c1.1,0.2,2.2,0.5,2.2,0.5S95,21,96,21.3c1.1,0.3,2.1,0.7,2.1,0.7
			s-0.1,0.3-0.3,0.5c-0.1,0.3-0.3,0.5-0.3,0.5l-0.4,1.1c0,0-1-0.5-2-1S93.2,22,93.2,22s-1-0.6-1.9-1.2
			C90.4,20.5,89.5,19.8,89.5,19.8z"/>
	</g>
	<g>
		<path class="st2" d="M93.3,13.8c0,0,1,0.5,1.9,1.1c1,0.6,1.9,1.2,1.9,1.2s0.2,0.2,0.6,0.4c0.3,0.2,0.8,0.6,1.3,0.9
			c0.9,0.7,1.8,1.4,1.8,1.4s-0.2,0.2-0.4,0.4c-0.2,0.2-0.4,0.5-0.4,0.5s-0.2,0.2-0.4,0.4c-0.2,0.2-0.4,0.5-0.4,0.5s-0.8-0.8-1.6-1.6
			c-0.8-0.8-1.5-1.7-1.5-1.7s-0.7-0.9-1.4-1.7C94,14.7,93.3,13.8,93.3,13.8z"/>
	</g>
	<g>
		<path class="st2" d="M98.9,9.3c0,0,0.8,0.8,1.5,1.7s1.4,1.8,1.4,1.8s0.7,0.9,1.3,1.8c0.6,0.9,1.2,1.9,1.2,1.9s-0.3,0.1-0.5,0.3
			c-0.1,0.1-0.3,0.1-0.4,0.2c-0.1,0-0.2,0.1-0.2,0.1s-0.3,0.2-0.5,0.3c-0.1,0.1-0.3,0.2-0.4,0.2c-0.1,0.1-0.2,0.1-0.2,0.1
			s-0.5-1-1-2s-0.9-2.1-0.9-2.1s-0.4-1-0.8-2.1C99.2,10.4,98.9,9.3,98.9,9.3z"/>
	</g>
	<g>
		<path class="st2" d="M105.6,7c0,0,0.4,1,0.8,2.1s0.7,2.1,0.7,2.1s0.3,1.1,0.6,2.1c0.3,1.1,0.5,2.2,0.5,2.2s-0.3,0-0.6,0.1
			c-0.3,0-0.6,0.1-0.6,0.1l-1.2,0.3c0,0-0.2-1.1-0.2-2.2c-0.1-1.1-0.1-2.2-0.1-2.2s0-1.1,0-2.3C105.6,8.1,105.6,7,105.6,7z"/>
	</g>
	<g>
		<path class="st2" d="M112.7,6.9c0,0,0.1,1.1,0.1,2.3c0,1.1,0,2.2,0,2.2s0,0.3,0,0.7s0,1-0.1,1.5c-0.1,1.1-0.2,2.2-0.2,2.2
			s-0.3-0.1-0.6-0.2c-0.3,0-0.6-0.1-0.6-0.1s-0.3,0-0.6-0.1c-0.3,0-0.6,0-0.6,0s0.2-1.1,0.5-2.2s0.6-2.2,0.6-2.2s0.4-1,0.8-2
			C112.3,7.9,112.7,6.9,112.7,6.9z"/>
	</g>
	<g>
		<path class="st2" d="M119.5,9.1c0,0-0.3,1.1-0.6,2.2c-0.3,1.1-0.7,2.1-0.7,2.1s-0.4,1.1-0.8,2.1s-0.9,2-0.9,2s-0.3-0.2-0.5-0.3
			c-0.1-0.1-0.3-0.2-0.4-0.2c-0.1-0.1-0.2-0.1-0.2-0.1s-0.3-0.1-0.5-0.3c-0.1-0.1-0.3-0.1-0.4-0.2s-0.2-0.1-0.2-0.1s0.6-1,1.2-1.9
			s1.3-1.8,1.3-1.8s0.6-0.9,1.3-1.8C118.8,10,119.5,9.1,119.5,9.1z"/>
	</g>
	<g>
		<path class="st2" d="M125.2,13.4c0,0-0.6,0.9-1.3,1.9c-0.7,0.9-1.4,1.8-1.4,1.8s-0.7,0.9-1.4,1.7c-0.7,0.8-1.5,1.6-1.5,1.6
			s0-0.1-0.1-0.2s-0.2-0.2-0.3-0.3c-0.2-0.2-0.4-0.4-0.4-0.4s-0.2-0.2-0.4-0.4c-0.2-0.2-0.4-0.4-0.4-0.4s0.8-0.7,1.7-1.4
			c0.9-0.7,1.8-1.3,1.8-1.3s0.9-0.7,1.9-1.3C124.2,14,125.2,13.4,125.2,13.4z"/>
	</g>
	<g>
		<path class="st2" d="M129.2,19.3c0,0-0.9,0.7-1.8,1.3c-0.9,0.6-1.9,1.2-1.9,1.2s-1,0.6-1.9,1.1c-1,0.6-2,1-2,1l-0.4-1.1
			c0,0-0.5-1.1-0.6-1.1c0,0,1-0.4,2.1-0.8c1-0.4,2.1-0.7,2.1-0.7s1.1-0.3,2.2-0.6C128,19.6,129.2,19.3,129.2,19.3z"/>
	</g>
</g>
<path class="st1" d="M1.8,64.7l32.1-35.5l11.2,8.1L74.3,2.7l36.1,34L142.6,1l35.7,34.3l25.2-24.9l19.9,24.1l6.9-6.6L249,52.6
	l-19.2-17.2l-5.7,7.8l-18-21.4l-3.8,15.7l-4.6-9.7l-18,8.9L196,52.5l15.5-11L245.9,77l-15.1-11.5l-7.5,2l-16-19l-11.5,14.3
	l-29.5-16.1l-11.1,9.9l-7.5-30.1l-11,8.6l-5.9-11.3l-25.8,28L97.6,48l-8.1,8.7l-3-8.1L65.8,62l23.7-25.2l13.1,8.7l6.4-6.9
	c0,0-9.9,2.2-16.1-4.3c-6.2-6.4-6.8-13.1-6.8-13.1s-7.8,0.8-11.6,21L69,16.5l-28.6,31L36,37.7L1.8,64.7z"/>
<path class="st3" d="M170.7,24.5c0,0,0,0.8,0.5,1.1c0.5,0.2,0.5,0,0.5,0S171.6,24.2,170.7,24.5z"/>
<g>
	<path class="st1" d="M163.1,14.1c-0.1-0.2-0.1-0.4-0.1-0.5c0.1,0,0.1-0.1,0.2-0.1c0,0,0,0,0.1,0h0.1c0.1-0.1,0.1-0.1,0.2-0.2
		c0.1-0.1,0.1-0.1,0.2-0.2c0.1-0.1,0.1-0.2,0.2-0.2c0.1,0,0-0.1,0.1-0.2l0,0v0.1l0,0c0-0.1,0-0.1,0-0.2c0-0.1,0-0.3,0-0.4
		c-0.1-0.2-0.1-0.3-0.1-0.5c0,0,0,0,0-0.1s0.1-0.1,0.1-0.2c0,0.1,0.1,0.2,0.1,0.3c0-0.1,0-0.2-0.1-0.4c-0.2-0.2-0.4-0.4-0.8-0.5
		c-0.1,0-0.1-0.1-0.2-0.2c0-0.1,0-0.1-0.1-0.1s-0.1,0-0.2,0c-0.2,0-0.3-0.2-0.4-0.2l0,0c-0.1-0.1-0.1-0.1-0.2-0.2
		c-0.1,0-0.1-0.1-0.1-0.1c0-0.1,0-0.1,0-0.2c0-0.1,0-0.2-0.1-0.3c-0.2-0.1-0.4-0.2-0.5-0.3c-0.1,0-0.1-0.1-0.2-0.1
		c-0.1,0-0.3,0-0.4,0c0,0,0,0-0.1,0c-0.1,0.1-0.3,0.1-0.4,0.2c-0.1,0-0.2,0.1-0.2,0.2c0,0.1-0.1,0.2-0.2,0.2c0,0-0.1,0-0.1,0.1
		s-0.1,0.1-0.1,0.2c0-0.1-0.1-0.1-0.1-0.2c0,0-0.1,0-0.1,0.1c0,0,0,0.1,0.1,0.1c0.1,0.1,0.1,0.1-0.1,0.1l0,0h-0.1
		c-0.1,0-0.1-0.1-0.1-0.1c-0.1,0-0.1-0.1-0.2-0.1c-0.1,0-0.1-0.1-0.2-0.1c0-0.1,0-0.2,0-0.2c-0.2-0.2-0.3-0.4-0.7-0.4
		c-0.1,0-0.2,0-0.3,0s-0.2,0-0.3,0.1c-0.2,0.3-0.5,0.5-0.5,0.9c0,0.2-0.1,0.5,0,0.7s0.2,0.3,0.4,0.4c0.1,0.1,0.2,0.1,0.2,0
		c0.1,0,0.2,0,0.3,0.1c0,0.1,0.1,0.1,0.1,0.2c0.1,0.1,0.1,0.1,0.2,0l0.1-0.1c0.1,0,0.2,0.1,0.3,0.1c0,0,0,0,0,0.1c0,0.2,0,0.5,0,0.7
		s-0.1,0.2-0.3,0.2c-0.1,0-0.1,0-0.2,0c-0.2,0-0.5,0-0.7-0.1c-0.1,0-0.2,0-0.3-0.1s-0.2-0.1-0.3-0.1s-0.1,0-0.2,0h-0.3l0.7,1.1
		l0.2-0.2c0.1,0,0.1,0.1,0.2,0.1c0.2,0.1,0.4,0.1,0.6,0.2c0.1,0,0.2,0,0.2,0.1c0,0.2-0.1,0.3-0.1,0.4c0,0.2-0.1,0.4-0.1,0.6
		c0,0.3-0.1,0.6-0.2,0.9c0,0.1,0,0.2-0.1,0.3l0,0l0,0c0,0.2-0.1,0.4-0.1,0.5c0,0.2-0.1,0.2-0.2,0.2c0-0.1,0-0.1,0-0.2v-0.1
		c0,0-0.1,0.1-0.2,0.3c-0.2,0.4,0.7,1.3,0.7,1.3c0-0.1,0-0.1-0.1-0.2l0,0c0-0.1,0-0.1,0.1-0.2c0-0.1,0.1-0.2,0.1-0.3
		c0.1-0.1,0.1-0.3,0.1-0.4c0,0,0-0.1,0.1-0.1c0-0.1,0.1-0.1,0.1-0.2c0,0,0-0.1,0.1-0.1c0.1-0.1,0.1-0.2,0.2-0.3
		c0.1-0.2,0.2-0.5,0.2-0.7c0,0,0,0,0.1-0.1c0,0.1,0,0.1,0.1,0.2l0,0c0-0.1,0.1-0.2,0.1-0.3s0.1-0.2,0.1-0.3v-0.1c0-0.1,0-0.1,0-0.2
		c0-0.1,0.1-0.2,0.1-0.3h0.1l0,0l0,0l0,0c0,0,0,0,0-0.1s0.1-0.1,0.1-0.1h0.1c0,0,0,0.1-0.1,0.1c0,0-0.1,0-0.2,0.1l0,0c0,0,0,0,0.1,0
		s0.2,0,0.2,0c0.1-0.1,0.3-0.2,0.4-0.4l0,0c0.1,0,0.1,0,0.2,0.1c0,0,0.1,0,0.1,0.1s0,0.2-0.1,0.2c-0.1,0.1-0.2,0.1-0.3,0.2
		c0.1,0.1,0.1,0.1,0.2,0.2c0.1-0.1,0.2-0.2,0.3-0.3c0-0.1,0.1-0.1,0.1,0c0,0,0.1,0.1,0,0.1c-0.1,0.1-0.1,0.2-0.1,0.3
		c-0.1,0-0.1,0-0.1,0c0,0.1-0.1,0.2-0.1,0.2s0,0.1-0.1,0.1c0,0.1-0.1,0.1-0.1,0.2c-0.1,0.2-0.2,0.3-0.3,0.5c0,0.1-0.1,0.1-0.1,0.2
		c-0.1,0-0.2,0.1-0.2,0.2c0,0,0,0.1-0.1,0.2c-0.2,0.3-0.3,0.6-0.5,0.9c-0.1,0.3-0.2,0.5-0.2,0.8c0,0,0,0.1-0.1,0.1
		c-0.1,0.1-0.2,0.2-0.3,0.3c-0.1,0.1-0.2,0.1-0.3,0.2c0-0.2-0.1-0.4-0.1-0.6l-0.6,0.6l-0.2,1.6l3,7c0-0.1-0.1-0.3-0.1-0.4
		c0-0.2,0-0.4-0.1-0.6c0-0.1-0.1-0.2-0.1-0.3c0-0.2,0-0.4-0.1-0.6c0-0.3-0.1-0.6-0.1-0.9c0-0.2,0-0.3-0.1-0.5s-0.2-0.3-0.2-0.5
		c0-0.1,0-0.2-0.1-0.3c0.2,0,0.4,0,0.7-0.1c0.1,0,0.3-0.2,0.4,0l0,0c0.1,0,0.2,0,0.4,0s0.3-0.1,0.5-0.1h0.1c0-0.1,0-0.2-0.1-0.3
		v-0.1c0-0.1,0-0.2,0-0.3c-0.1-0.3-0.2-0.5-0.2-0.8c0-0.1-0.1-0.2-0.1-0.3c0-0.3-0.1-0.7-0.1-1c-0.1-0.4-0.2-0.9-0.3-1.3
		c0-0.1,0-0.2-0.1-0.3c0-0.1,0-0.3-0.1-0.4l0,0V18v-0.1c0.1-0.1,0.2-0.2,0.3-0.3c0.3-0.2,0.5-0.4,0.8-0.6c0.1,0,0.1-0.1,0.2-0.1
		c0.6-0.3,1.1-0.9,1.1-0.9C163.2,15,163.1,14.1,163.1,14.1z M163.9,11.3L163.9,11.3c-0.1,0-0.1,0-0.1,0c-0.1-0.1-0.2-0.2-0.3-0.3
		C163.6,11,163.7,11.1,163.9,11.3z M157.6,17L157.6,17c0,0-0.1-0.1,0-0.1c0,0,0,0,0.1-0.1v0.1C157.7,16.9,157.7,17,157.6,17z
		 M160,10.1c-0.1,0-0.2-0.1-0.2-0.2c0,0,0-0.1,0.1-0.1l0.1-0.1c0,0,0.1,0,0.1,0.1c0,0,0,0.1,0.1,0.1c0,0,0,0,0.1,0.1
		C160.1,10,160,10,160,10.1z M158.9,14.5L158.9,14.5c0,0.2,0,0.3-0.1,0.5c0-0.1-0.1-0.2,0-0.3C158.8,14.6,158.8,14.5,158.9,14.5z
		 M159.3,13.3c-0.1-0.1-0.1-0.3,0-0.4C159.5,13.1,159.5,13.3,159.3,13.3z M159.5,13.5C159.5,13.6,159.4,13.6,159.5,13.5
		c-0.1,0-0.1-0.1-0.1-0.1v-0.1l0.1-0.1c0-0.1,0-0.2,0-0.3v-0.1h0.1c0.1,0,0.2,0.3,0.2,0.3C159.7,13.3,159.6,13.4,159.5,13.5z
		 M158.5,20.9L158.5,20.9c-0.1-0.1-0.1-0.3-0.3-0.3c0-0.1,0-0.2,0-0.2c0-0.2-0.1-0.4-0.1-0.5s-0.1-0.2-0.1-0.3c0-0.1,0-0.3,0-0.4
		c0-0.3,0-0.6-0.1-0.9c0.2-0.1,0.4-0.2,0.6-0.4c0,0.2,0,0.3,0.1,0.5c0,0.2,0,0.4,0.1,0.5c0,0.1,0.1,0.2,0,0.4c0,0.2,0,0.4-0.1,0.6
		c0,0.1,0,0.2,0.1,0.2c0,0,0,0,0.1,0c0,0.1,0,0.2-0.1,0.3c0,0.1-0.1,0.1-0.1,0.2C158.7,20.8,158.6,20.8,158.5,20.9z M159.2,21.7
		c0-0.1,0.1-0.2,0.1-0.3c0,0,0,0,0.1,0s0.2-0.1,0.2-0.2s0.1-0.2,0.1-0.4l0,0l0,0c0,0.1-0.1,0.3-0.2,0.4
		C159.6,21.6,159.5,21.8,159.2,21.7z"/>
	<path class="st1" d="M157.4,14c0.1-0.1,0.2-0.1,0.3-0.1c0-0.1-0.1-0.1-0.1-0.2c0-0.1,0-0.1-0.1-0.2c-0.1-0.2-0.2-0.3-0.3-0.4
		c-0.1-0.2-0.3-0.4-0.4-0.6c0-0.1-0.1-0.1-0.1-0.2c0-0.1,0-0.1-0.1-0.2l0,0c-0.3-0.5-0.5-0.9-0.9-1.2c-0.1-0.1-0.2-0.2-0.3-0.3
		s-0.1-0.1-0.2-0.1h-0.1c-0.2-0.1-0.3-0.1-0.5-0.2c-0.1-0.1-0.2-0.2-0.2-0.3V9.9c0-0.1,0-0.1,0-0.2c0,0,0-0.1,0.1-0.1
		c0.1-0.1,0.2-0.1,0.3-0.2l0.1-0.1l0,0c-0.2,0.1-0.3,0.2-0.5,0.4c-0.1,0.1-0.1,0.2-0.1,0.3s0,0.1,0,0.2c0,0.1,0,0.1-0.1,0.2
		c-0.1,0.1-0.2,0.1-0.3,0.2c0,0,0,0,0,0.1c-0.1,0.3,0,0.5,0,0.7c0,0.3,0.1,0.5,0,0.8c0,0.1,0,0.1,0,0.2c0,0,0,0.1,0.1,0.1l0,0
		c0-0.1,0-0.2,0.1-0.3c0-0.1,0-0.2,0.1-0.2c0,0,0-0.1,0-0.2v-0.1v-0.1l0,0c0,0,0,0,0-0.1s0-0.1,0-0.2c0,0,0,0,0-0.1c0,0,0,0,0-0.1
		V11c0,0,0,0,0-0.1c0,0,0,0,0.1,0c0-0.1,0-0.1,0.1-0.1c0,0,0-0.1,0.1,0l0,0c0,0,0,0,0.1,0c0,0,0,0,0-0.1c0,0,0,0,0.1,0l0,0l0,0h0.1
		c0.2,0.1,0.3,0.1,0.5,0.2c0.3,0.2,0.5,0.4,0.7,0.6c0.2,0.3,0.4,0.6,0.6,0.9l0.1,0.1c0,0,0,0,0,0.1c0,0,0,0,0,0.1
		c0.1,0.1,0.2,0.3,0.3,0.4c0.1,0.1,0.1,0.2,0.2,0.3c0.1,0.1,0.1,0.2,0.2,0.4c0,0,0,0,0,0.1L157.4,14L157.4,14
		C157.3,14.1,157.3,14.1,157.4,14l0.1,0.1C157.3,13.9,157.3,13.9,157.4,14z"/>
</g>
<g>
	<path class="st1" d="M174.7,35.5c-0.1-0.2-0.2-0.4-0.3-0.6c0-0.1-0.1-0.2-0.2-0.3c-0.1-0.2-0.2-0.4-0.3-0.5
		c-0.2-0.3-0.3-0.6-0.5-0.9c-0.1-0.2-0.2-0.3-0.3-0.5c-0.2-0.1-0.3-0.3-0.4-0.5c0-0.1-0.1-0.2-0.2-0.3c0.2,0,0.5-0.2,0.7-0.3
		c0.1-0.1,0.2-0.3,0.4-0.1l0,0c0.1,0,0.3-0.1,0.4-0.1c0.2-0.1,0.3-0.2,0.5-0.3c0,0,0.1-0.1,0-0.1c0-0.1-0.1-0.2-0.2-0.3l-0.1-0.1
		c0-0.1,0-0.2-0.1-0.3c-0.2-0.2-0.4-0.5-0.5-0.7c-0.1-0.1-0.2-0.2-0.2-0.3c-0.1-0.4-0.3-0.7-0.5-1c-0.2-0.4-0.5-0.8-0.7-1.2
		c0-0.1-0.1-0.2-0.2-0.2c-0.1-0.1-0.1-0.3-0.3-0.4l0,0c0,0,0-0.1-0.1-0.1s-0.1-0.1,0-0.1c0.1-0.1,0.2-0.3,0.3-0.4
		c0.2-0.3,0.4-0.6,0.6-0.9c0-0.1,0.1-0.1,0.2-0.2c0,0.1,0,0.3,0.1,0.4c0,0.1,0,0.1,0.1,0.1c0,0.1,0,0.3,0.1,0.4c0,0.1,0,0.1,0,0.2
		s0.1,0.2,0,0.3c-0.1,0.1-0.2,0.3-0.2,0.5s0,0.5,0.1,0.7c0,0.1,0.1,0.3,0.2,0.4l0,0c0,0,0,0,0-0.1c-0.1-0.1-0.1-0.3-0.1-0.4
		s0-0.3,0-0.4s0-0.2,0-0.4l0,0c0,0,0,0,0,0.1s0,0.3,0.1,0.4s0.1,0.3,0.1,0.4c0,0,0,0,0,0.1l0,0c0-0.1,0-0.2,0-0.3
		c0.1,0,0.1-0.1,0.1-0.2s0-0.2,0-0.3c0.1-0.3,0.1-0.6,0.2-0.8v-0.1c0-0.1,0-0.2,0-0.3c0-0.1,0-0.2-0.1-0.3v-0.1c0-0.1,0-0.2,0.1-0.3
		h-0.1c0-0.1,0.1-0.3,0.1-0.3c0-0.1,0-0.2-0.1-0.3c0-0.1-0.1-0.3,0-0.4v-0.1c0-0.2,0.1-0.4,0.1-0.6c0.1,0,0.2,0,0.2-0.1
		c-0.1-0.1-0.2-0.1-0.2-0.2c0-0.2-0.2-0.3-0.1-0.5c0,0,0,0,0-0.1c0,0-0.1,0-0.1-0.1c-0.2-0.1-0.3-0.3-0.3-0.5
		c0.1-0.1,0.1-0.1,0.2-0.2l0,0c0,0,0.1,0,0.1-0.1s0.1-0.2,0.1-0.3c0-0.1,0.1-0.2,0.1-0.2c0-0.1,0-0.2,0.1-0.2c0.1-0.1,0-0.1,0-0.2
		l0,0c0,0,0,0,0.1,0.1l0,0c0-0.1,0-0.1,0-0.2s-0.1-0.3-0.2-0.4c-0.1-0.2-0.2-0.3-0.3-0.5c0,0,0,0,0-0.1s0-0.2,0-0.3
		c0.1,0.1,0.2,0.2,0.2,0.2c-0.1-0.1-0.1-0.2-0.3-0.3c-0.3-0.2-0.6-0.3-0.9-0.2c-0.1,0-0.2,0-0.2-0.1s-0.1-0.1-0.1,0
		c0,0-0.1,0-0.2,0.1c-0.2,0-0.4-0.1-0.5-0.1l0,0c-0.1,0-0.2-0.1-0.3-0.1s-0.1,0-0.2-0.1c0-0.1,0-0.1-0.1-0.2c0-0.1-0.1-0.2-0.2-0.3
		c-0.2-0.1-0.4-0.1-0.7-0.1c-0.1,0-0.2,0-0.3,0s-0.3,0.1-0.4,0.1h-0.1c-0.1,0.1-0.2,0.2-0.4,0.3c-0.1,0.1-0.2,0.2-0.2,0.3
		c0,0.1,0,0.2-0.2,0.3c0,0,0,0.1-0.1,0.1c0,0.1,0,0.2-0.1,0.3c-0.1-0.1-0.1-0.1-0.2-0.2l-0.1,0.1l0.1,0.1c0.1,0.1,0.1,0.1,0,0.1l0,0
		h-0.1c-0.1,0-0.1-0.1-0.2-0.1c-0.1,0-0.2,0-0.3-0.1c-0.1,0-0.2-0.1-0.2-0.1c0-0.1,0-0.2-0.1-0.2c-0.2-0.2-0.5-0.3-0.8-0.2
		c-0.1,0-0.2,0.1-0.3,0.1c-0.1,0.1-0.2,0.1-0.3,0.2c-0.2,0.3-0.3,0.7-0.2,1.1c0,0.3,0.1,0.5,0.3,0.7c0.1,0.2,0.3,0.2,0.5,0.3
		c0.1,0,0.2,0,0.3-0.1s0.2-0.1,0.3,0c0.1,0,0.1,0.1,0.2,0.1c0.1,0.1,0.1,0,0.2-0.1c0,0,0-0.1,0.1-0.1s0.2,0,0.4,0h0.1
		c0.1,0.2,0.1,0.5,0.2,0.7c0.1,0.2,0,0.3-0.2,0.3c-0.1,0-0.1,0-0.2,0c-0.2,0.1-0.5,0.1-0.7,0.2c-0.1,0-0.2,0-0.3,0
		c-0.1-0.1-0.2,0-0.3,0s-0.2,0-0.2,0l-0.2,0.2l1,0.8l0.1-0.3c0.1,0,0.2,0,0.2,0c0.2,0,0.4,0,0.7,0c0.1,0,0.2,0,0.2,0
		c0,0.2,0,0.3,0,0.5s0.1,0.4,0.1,0.7c0.1,0.3,0.1,0.6,0.1,0.9c0,0.1,0,0.2,0,0.3c0,0,0,0,0,0.1c0,0,0,0,0,0.1c0,0.2,0.1,0.4,0.1,0.6
		c0.1,0.2,0,0.3-0.2,0.3c0-0.1-0.1-0.1-0.1-0.2s0-0.1-0.1-0.2c0,0.1-0.1,0.2-0.1,0.3c0,0.5,1.2,1,1.2,1c0-0.1-0.1-0.1-0.1-0.2l0,0
		c0-0.1,0-0.2,0-0.2c0-0.1,0-0.2,0-0.4c0-0.2,0-0.3,0-0.5c0,0,0-0.1,0-0.2s0-0.2,0-0.2v-0.1c0.1-0.1,0.1-0.2,0.1-0.3
		c0-0.3,0-0.5,0-0.8c0,0,0,0,0-0.1c0.1,0.1,0.1,0.1,0.1,0.2l0,0c0-0.1,0-0.3,0-0.4s0-0.3,0-0.4s0-0.1,0-0.2s-0.1-0.1-0.1-0.2
		s0-0.3,0-0.4h0.1l0,0l0,0l0,0c0,0-0.1,0-0.1-0.1s0.1-0.1,0.1-0.2h0.1v0.1l-0.1,0.1l0,0h0.1c0.1,0,0.2-0.1,0.2-0.1
		c0.1-0.1,0.3-0.3,0.2-0.5l0,0c0.1,0,0.1,0,0.2,0h0.1c0,0.1,0.1,0.2,0,0.3c-0.1,0.1-0.1,0.2-0.2,0.3c0.1,0,0.2,0.1,0.3,0.1
		c0.1-0.1,0.1-0.2,0.2-0.4c0-0.1,0.1-0.1,0.1-0.1c0.1,0,0.1,0,0.1,0.1s-0.1,0.2,0.1,0.4c-0.1,0-0.1,0-0.1,0c0,0.1,0,0.2-0.1,0.3v0.1
		c0,0.1,0,0.2,0,0.3c-0.1,0.2-0.1,0.4-0.2,0.6c0,0.1,0,0.2-0.1,0.2c-0.1,0.1-0.1,0.2-0.1,0.3c0,0.1,0,0.1,0,0.2
		c0,0.4-0.1,0.7-0.1,1.1c0,0.3,0,0.6,0.1,0.9v0.1c-0.1,0.1-0.1,0.3-0.2,0.4c-0.1,0.1-0.2,0.2-0.3,0.3c-0.1-0.2-0.2-0.4-0.3-0.5
		l-0.4,0.8l0.4,1.7L174.7,35.5C174.8,35.7,174.8,35.6,174.7,35.5z M173.1,25c0,0.1,0,0.1-0.1,0.2c0,0,0,0-0.1,0c0-0.2,0-0.3,0-0.5
		v-0.1c0,0,0.1,0,0.1-0.1c0,0,0,0.1,0.1,0.1c0,0.1,0,0.1,0,0.2C173.2,24.9,173.2,25,173.1,25z M173.5,23.9L173.5,23.9
		c0.1,0,0.1,0.1,0.1,0.1c-0.1,0-0.1,0-0.1,0S173.5,24,173.5,23.9z M173.6,24.3c0,0.1,0,0.3,0,0.4s0,0.2-0.1,0.3v0.1
		c0,0.1,0,0.2,0.1,0.2c0-0.1,0-0.2,0-0.3c0.1,0,0.1,0,0.2,0c0.1,0.1,0,0.3,0,0.4l-0.1-0.1v0.1c0.1,0.3,0,0.5,0,0.8
		c0,0.2-0.1,0.3-0.1,0.5v-0.1l0,0c0,0.1,0,0.2,0,0.3l-0.1-0.1c0,0.1-0.1,0.1-0.1,0.2c-0.2-0.2-0.2-0.6,0-0.8h0.1c0-0.1,0-0.1,0-0.1
		c0.1-0.1,0.1-0.1,0.1-0.2s0-0.3-0.1-0.4c0,0,0,0,0-0.1s0-0.2,0-0.3c0-0.2,0.1-0.4-0.1-0.5l0,0c0-0.1,0-0.2,0-0.3
		C173.3,24.4,173.5,24.3,173.6,24.3z M173.3,18.7L173.3,18.7c-0.1,0-0.1,0-0.2,0c-0.1-0.1-0.3-0.1-0.4-0.2
		C172.9,18.5,173.1,18.6,173.3,18.7z M169,26.8L169,26.8c-0.1,0-0.1-0.1-0.1-0.1v-0.1c0,0,0.1,0,0.1,0.1C169,26.7,169,26.7,169,26.8
		z M169,18.9c-0.1,0-0.2,0-0.3-0.1v-0.1c0,0,0-0.1,0.1-0.1c0,0,0.1-0.1,0.1,0l0.1,0.1h0.1C169,18.8,168.9,18.8,169,18.9z
		 M169.4,23.7L169.4,23.7c0.1,0.2,0.1,0.4,0.1,0.5c0-0.1-0.1-0.1-0.1-0.3C169.4,23.9,169.4,23.8,169.4,23.7z M169.4,22.4
		c-0.2-0.1-0.2-0.3-0.1-0.4C169.5,22.1,169.5,22.3,169.4,22.4z M169.7,22.6C169.7,22.6,169.6,22.6,169.7,22.6c-0.1,0-0.1,0-0.2,0
		v-0.1v-0.1c0-0.1-0.1-0.2-0.1-0.3V22h0.1c0.1,0,0.3,0.2,0.3,0.3C169.8,22.3,169.7,22.5,169.7,22.6z M171.3,30.5L171.3,30.5
		c-0.2-0.1-0.2-0.3-0.4-0.2c0-0.1-0.1-0.1-0.1-0.2c-0.1-0.2-0.2-0.3-0.3-0.5c-0.1-0.1-0.1-0.2-0.2-0.3c-0.1-0.1-0.1-0.3-0.1-0.4
		c-0.1-0.3-0.2-0.7-0.4-0.9c0.2-0.2,0.4-0.4,0.5-0.6c0.1,0.2,0.2,0.3,0.2,0.5c0.1,0.2,0.2,0.3,0.3,0.5c0.1,0.1,0.1,0.2,0.2,0.4
		c0,0.2,0.1,0.4,0.1,0.7c0,0.1,0.1,0.2,0.2,0.2h0.1c0,0.1,0,0.2,0,0.3c0,0.1,0,0.2,0,0.2C171.5,30.3,171.4,30.4,171.3,30.5z
		 M172.3,31.1c0-0.1,0-0.2,0-0.3c0,0,0,0,0.1,0s0.2-0.2,0.2-0.3c0-0.1,0-0.3,0-0.4l0,0l0,0c0,0.2,0,0.3,0,0.5
		C172.6,30.8,172.6,31,172.3,31.1z"/>
	<path class="st1" d="M167.7,23.8c0-0.1,0.1-0.1,0.2-0.1l-0.1-0.1l-0.1-0.1c-0.1-0.1-0.2-0.2-0.3-0.3c-0.2-0.1-0.4-0.2-0.5-0.4
		c-0.1,0-0.1-0.1-0.1-0.1l-0.1-0.1l0,0c-0.3-0.3-0.7-0.6-1.1-0.8c-0.1-0.1-0.2-0.1-0.3-0.2c-0.1,0-0.1-0.1-0.2-0.1H165
		c-0.2,0-0.3,0-0.5,0c-0.1,0-0.2-0.1-0.2-0.2v-0.1c0,0,0-0.1-0.1-0.1V21c0.1-0.1,0.1-0.2,0.2-0.3v-0.1l0,0c-0.1,0.1-0.2,0.3-0.3,0.4
		s-0.1,0.2,0,0.3v0.1c0,0.1,0,0.1-0.1,0.2s-0.1,0.2-0.2,0.2c0,0,0,0,0,0.1c0,0.2,0.1,0.4,0.2,0.6c0.1,0.2,0.2,0.4,0.2,0.7
		c0,0.1,0,0.1,0,0.2c0,0,0,0.1,0.1,0.1l0,0c0-0.1,0-0.2,0-0.3c0-0.1,0-0.1,0-0.2v-0.1v-0.1c0,0,0,0,0-0.1l0,0l0,0c0-0.1,0-0.1,0-0.1
		l0,0c0,0,0,0,0-0.1c0,0,0,0,0-0.1l0,0l0,0v-0.1v-0.1l0,0l0,0c0,0,0,0,0-0.1c0,0,0,0,0.1,0l0,0l0,0h0.1c0.2,0,0.3,0,0.5,0
		c0.3,0.1,0.5,0.2,0.7,0.3c0.3,0.2,0.5,0.4,0.8,0.6c0,0,0.1,0,0.1,0.1l0,0l0,0c0.1,0.1,0.2,0.2,0.3,0.3c0.1,0.1,0.2,0.1,0.2,0.2
		c0.1,0.1,0.2,0.2,0.3,0.3c0,0,0,0,0.1,0V24l0,0c0,0.1,0,0.1,0,0.1h0.1C167.6,23.8,167.7,23.8,167.7,23.8z"/>
</g>
</svg>
