<?xml version="1.0" encoding="utf-8"?>
<!-- Generator: Adobe Illustrator 26.5.0, SVG Export Plug-In . SVG Version: 6.00 Build 0)  -->
<svg version="1.1" id="Layer_1" xmlns="http://www.w3.org/2000/svg" xmlns:xlink="http://www.w3.org/1999/xlink" x="0px" y="0px"
	 viewBox="0 0 377.6 250.8" style="enable-background:new 0 0 377.6 250.8;" xml:space="preserve">
<style type="text/css">
	.st0{fill:#E1A74E;}
</style>
<g>
	<g>
		<path class="st0" d="M29.9,192c0,8.2-6.7,14.9-14.9,14.9S0,200.2,0,192s6.7-14.9,14.9-14.9C23.3,177.1,29.9,183.8,29.9,192z"/>
		<path class="st0" d="M68.6,192c0,7.1-5.8,12.9-12.9,12.9s-12.9-5.8-12.9-12.9s5.8-12.9,12.9-12.9S68.6,184.9,68.6,192z"/>
		<path class="st0" d="M108.2,192c0,6.6-5.4,12-12,12s-12-5.4-12-12s5.4-12,12-12C102.9,180,108.2,185.4,108.2,192z"/>
		<path class="st0" d="M146.9,192c0,5.5-4.5,10-10,10s-10-4.5-10-10s4.5-10,10-10S146.9,186.5,146.9,192z"/>
		<path class="st0" d="M40.5,156.3c0,7.1-5.8,12.9-12.9,12.9s-12.9-5.8-12.9-12.9s5.8-12.9,12.9-12.9
			C34.8,143.4,40.5,149.2,40.5,156.3z"/>
		<path class="st0" d="M74.1,156.3c0,6.1-4.9,11-11,11s-11-4.9-11-11s4.9-11,11-11C69.2,145.5,74.1,150.3,74.1,156.3z"/>
		<path class="st0" d="M102.7,156.3c0,5-4,8.9-8.9,8.9s-8.9-4-8.9-8.9s4-8.9,8.9-8.9C98.7,147.4,102.7,151.5,102.7,156.3z"/>
		<path class="st0" d="M132.3,156.3c0,4.4-3.6,7.9-7.9,7.9c-4.4,0-7.9-3.6-7.9-7.9s3.6-7.9,7.9-7.9
			C128.7,148.4,132.3,152,132.3,156.3z"/>
		<path class="st0" d="M55.5,121c0,6.1-4.9,11-11,11s-11-4.9-11-11c0-6,4.9-11,11-11C50.6,110.1,55.5,115,55.5,121z"/>
		<path class="st0" d="M84.9,121c0,5-4,8.9-8.9,8.9c-5,0-8.9-4-8.9-8.9s4-8.9,8.9-8.9C80.9,112,84.9,116.1,84.9,121z"/>
		<path class="st0" d="M114.3,121c0,3.9-3.2,7-7,7s-7-3.2-7-7c0-3.9,3.2-7,7-7C111.2,114.1,114.3,117.2,114.3,121z"/>
		<path class="st0" d="M69.4,85.8c0,5-4,8.9-8.9,8.9s-8.9-4-8.9-8.9s4-8.9,8.9-8.9C65.3,76.9,69.4,80.8,69.4,85.8z"/>
		<path class="st0" d="M97.4,85.8c0,3.3-2.6,6-6,6c-3.3,0-6-2.6-6-6s2.6-6,6-6S97.4,82.6,97.4,85.8z"/>
		<path class="st0" d="M82.9,50.9c0,3.9-3.2,7-7,7s-7-3.2-7-7s3.2-7,7-7C79.8,43.9,82.9,47,82.9,50.9z"/>
	</g>
	<g>
		<g>
			<path class="st0" d="M226.9,92.9c-5.1,0-8.7-1.1-11-3.5c-2.2-2.2-3.4-5.9-3.4-10.9v-4.9h11V80c0,1.1,0.2,2,0.6,2.7
				c0.4,0.6,1.1,1,2,1c1,0,1.7-0.3,2.1-0.8s0.6-1.4,0.6-2.6c0-1.5-0.2-2.8-0.5-3.9c-0.3-1-0.9-2-1.7-2.9s-2-2-3.5-3.3l-5-4.3
				c-3.8-3.2-5.6-6.8-5.6-10.9c0-4.3,1.1-7.5,3.3-9.8c2.2-2.2,5.4-3.4,9.6-3.4c5.1,0,8.7,1.2,10.9,3.7c2.1,2.4,3.3,6.2,3.3,11.2
				h-11.3v-3.5c0-0.7-0.2-1.2-0.6-1.6c-0.4-0.4-1-0.6-1.7-0.6c-0.9,0-1.5,0.2-1.9,0.7c-0.4,0.4-0.6,1-0.6,1.7s0.2,1.4,0.6,2.2
				c0.4,0.8,1.2,1.7,2.5,2.8L233,64c1.3,1.1,2.4,2.2,3.6,3.5c1.1,1.2,1.9,2.6,2.6,4.3c0.6,1.6,1,3.6,1,5.9c0,4.7-0.9,8.4-2.8,11.1
				C235.4,91.6,231.7,92.9,226.9,92.9z"/>
			<path class="st0" d="M248.7,92.5V42.3H271V52h-11v9.8h10.5v9.5H260v11.5h11.7v9.8h-23L248.7,92.5L248.7,92.5z"/>
			<path class="st0" d="M285.6,92.5l-6.9-50.2h10.6l4.1,34.1l3.7-34.1h10.6l-6.8,50.2H285.6z"/>
			<path class="st0" d="M316,92.5V42.3h22.3V52h-11v9.8h10.5v9.5h-10.5v11.5H339v9.8h-23V92.5z"/>
			<path class="st0" d="M347.8,92.5V42.3h11.5l5.1,24v-24h10.8v50.1h-10.9l-5.6-25.1v25.1L347.8,92.5L347.8,92.5z"/>
		</g>
		<path class="st0" d="M223.2,151.1c-3.8,0-6.5-0.9-8.2-2.8c-1.6-1.9-2.5-4.9-2.5-9v-4.1h8.2v5.2c0,0.9,0.1,1.7,0.4,2.2
			c0.3,0.5,0.8,0.8,1.5,0.8s1.3-0.2,1.5-0.7c0.3-0.4,0.4-1.1,0.4-2.1c0-1.3-0.1-2.3-0.4-3.3c-0.3-0.8-0.7-1.6-1.3-2.4
			c-0.6-0.8-1.5-1.7-2.5-2.7l-3.8-3.6c-2.7-2.6-4.2-5.6-4.2-9c0-3.6,0.8-6.2,2.4-8.1c1.6-1.8,4.1-2.7,7.1-2.7c3.9,0,6.5,1,8.1,3
			s2.4,5.1,2.4,9.2h-8.4v-3c0-0.6-0.2-1-0.5-1.3s-0.7-0.5-1.3-0.5c-0.7,0-1.1,0.2-1.4,0.5c-0.3,0.4-0.5,0.8-0.5,1.4s0.2,1.2,0.5,1.9
			c0.3,0.7,0.9,1.4,1.8,2.3l4.8,4.6c0.9,0.9,1.8,1.8,2.6,2.8s1.4,2.2,1.9,3.6c0.5,1.3,0.7,2.9,0.7,4.9c0,3.9-0.7,6.9-2.1,9.1
			C229.3,149.9,226.8,151.1,223.2,151.1z"/>
		<path class="st0" d="M249.2,151.1c-3.5,0-6-1-7.6-2.9s-2.4-4.8-2.4-8.5v-30.4h8v30.1c0,0.7,0,1.3,0.1,2c0.1,0.6,0.3,1.1,0.5,1.5
			c0.3,0.4,0.7,0.6,1.4,0.6c0.6,0,1.1-0.2,1.4-0.6c0.3-0.4,0.5-0.9,0.5-1.5c0.1-0.6,0.1-1.3,0.1-2v-30.1h8v30.4
			c0,3.8-0.8,6.6-2.4,8.5C255.2,150,252.6,151.1,249.2,151.1z"/>
		<path class="st0" d="M266.2,150.7v-41.5h12.6l3.5,25.3l3.5-25.3h12.8v41.5H291v-29.9l-4.8,29.9h-7.4l-5.1-29.9v29.9H266.2
			L266.2,150.7z"/>
		<path class="st0" d="M306.2,150.7v-41.5h12.6l3.5,25.3l3.5-25.3h12.8v41.5H331v-29.9l-4.8,29.9h-7.4l-5.1-29.9v29.9H306.2
			L306.2,150.7z"/>
		<path class="st0" d="M345.7,150.7v-41.5h8v41.5H345.7z"/>
		<path class="st0" d="M364.4,150.7v-33.5h-5v-7.9h18.2v7.9h-5v33.5H364.4z"/>
		<g>
			<path class="st0" d="M216.9,208.2v-33.5h-5v-7.9h18.2v7.9h-5v33.5H216.9z"/>
			<path class="st0" d="M247.3,208.2v-41.5H260c2.1,0,3.8,0.5,4.8,1.4c1.1,0.9,1.8,2.3,2.1,4.1c0.4,1.7,0.5,3.8,0.5,6.1
				c0,2.2-0.3,4.1-0.9,5.4c-0.6,1.3-1.6,2.3-3.3,2.8c1.3,0.3,2.2,0.9,2.7,1.9s0.8,2.3,0.8,4v15.8h-8.2v-16.3c0-1.2-0.2-1.9-0.7-2.2
				s-1.3-0.4-2.4-0.4v18.9H247.3L247.3,208.2z M255.8,181.9h2c1.1,0,1.7-1.2,1.7-3.8c0-1.6-0.1-2.6-0.4-3.2
				c-0.3-0.5-0.7-0.7-1.4-0.7h-1.9L255.8,181.9L255.8,181.9z"/>
			<path class="st0" d="M285.3,208.2v-41.5h16.6v8h-8.1v8.1h7.8v7.8h-7.8v9.6h8.7v8.1L285.3,208.2L285.3,208.2z"/>
			<path class="st0" d="M319.6,208.2v-41.5h8.2v16.7l3.9-16.7h8.3l-4.7,19l5.6,22.5h-8.6l-4.6-20.1v20.1H319.6z"/>
			<path class="st0" d="M367.1,208.9c-3.8,0-6.5-0.9-8.2-2.8c-1.6-1.9-2.5-4.9-2.5-9V193h8.2v5.2c0,0.9,0.1,1.7,0.4,2.2
				s0.8,0.8,1.5,0.8s1.3-0.2,1.5-0.7c0.3-0.4,0.4-1.1,0.4-2.1c0-1.3-0.1-2.3-0.4-3.3c-0.3-0.8-0.7-1.6-1.3-2.4
				c-0.6-0.8-1.5-1.7-2.5-2.7l-3.8-3.6c-2.7-2.6-4.2-5.6-4.2-9c0-3.6,0.8-6.2,2.4-8.1c1.6-1.8,4.1-2.7,7.1-2.7c3.9,0,6.5,1,8.1,3
				s2.4,5.1,2.4,9.2H368V176c0-0.6-0.2-1-0.5-1.3s-0.7-0.5-1.3-0.5c-0.7,0-1.1,0.2-1.4,0.5s-0.5,0.8-0.5,1.4c0,0.6,0.2,1.2,0.5,1.9
				s0.9,1.4,1.8,2.3l4.8,4.6c0.9,0.9,1.8,1.8,2.6,2.8c0.8,1,1.4,2.2,1.9,3.6c0.5,1.3,0.7,2.9,0.7,4.9c0,3.9-0.7,6.9-2.1,9.1
				C373.2,207.8,370.8,208.9,367.1,208.9z"/>
		</g>
	</g>
	<g>
		<rect x="178.4" y="32.9" class="st0" width="4.6" height="185"/>
	</g>
</g>
</svg>
