<?xml version="1.0" encoding="utf-8"?>
<!-- Generator: Adobe Illustrator 26.5.0, SVG Export Plug-In . SVG Version: 6.00 Build 0)  -->
<svg version="1.1" id="Layer_1" xmlns="http://www.w3.org/2000/svg" xmlns:xlink="http://www.w3.org/1999/xlink" x="0px" y="0px"
	 viewBox="0 0 377.6 250.8" style="enable-background:new 0 0 377.6 250.8;" xml:space="preserve">
<g>
	<g>
		<path d="M32.4,192.4c0,8.1-6.6,14.7-14.7,14.7S3,200.6,3,192.4c0-8.1,6.6-14.7,14.7-14.7C25.8,177.7,32.4,184.3,32.4,192.4z"/>
		<path d="M70.4,192.4c0,7-5.7,12.7-12.7,12.7S45,199.5,45,192.4s5.7-12.7,12.7-12.7C64.7,179.7,70.4,185.4,70.4,192.4z"/>
		<path d="M109.5,192.4c0,6.5-5.3,11.8-11.8,11.8c-6.5,0-11.8-5.3-11.8-11.8s5.3-11.8,11.8-11.8
			C104.2,180.7,109.5,185.9,109.5,192.4z"/>
		<path d="M147.5,192.4c0,5.4-4.4,9.8-9.8,9.8c-5.4,0-9.8-4.4-9.8-9.8c0-5.4,4.4-9.8,9.8-9.8S147.5,187,147.5,192.4z"/>
		<path d="M42.8,157.4c0,7-5.7,12.7-12.7,12.7s-12.7-5.7-12.7-12.7c0-7,5.7-12.7,12.7-12.7C37.1,144.7,42.8,150.3,42.8,157.4z"/>
		<path d="M75.9,157.4c0,6-4.8,10.8-10.8,10.8c-6,0-10.8-4.8-10.8-10.8c0-6,4.8-10.8,10.8-10.8C71,146.6,75.9,151.4,75.9,157.4z"/>
		<path d="M104,157.4c0,4.9-3.9,8.8-8.8,8.8c-4.9,0-8.8-3.9-8.8-8.8s3.9-8.8,8.8-8.8C100.1,148.6,104,152.5,104,157.4z"/>
		<path d="M133.1,157.4c0,4.3-3.5,7.8-7.8,7.8c-4.3,0-7.8-3.5-7.8-7.8c0-4.3,3.5-7.8,7.8-7.8C129.6,149.5,133.1,153,133.1,157.4z"/>
		<path d="M57.6,122.6c0,6-4.8,10.8-10.8,10.8c-6,0-10.8-4.8-10.8-10.8c0-5.9,4.8-10.8,10.8-10.8C52.8,111.8,57.6,116.6,57.6,122.6z
			"/>
		<path d="M86.5,122.6c0,4.9-3.9,8.8-8.8,8.8c-4.9,0-8.8-3.9-8.8-8.8c0-4.9,3.9-8.8,8.8-8.8C82.6,113.8,86.5,117.7,86.5,122.6z"/>
		<path d="M115.4,122.6c0,3.8-3.1,6.9-6.9,6.9c-3.8,0-6.9-3.1-6.9-6.9c0-3.8,3.1-6.9,6.9-6.9C112.4,115.7,115.4,118.8,115.4,122.6z"
			/>
		<path d="M71.2,87.9c0,4.9-3.9,8.8-8.8,8.8c-4.9,0-8.8-3.9-8.8-8.8c0-4.9,3.9-8.8,8.8-8.8C67.3,79.1,71.2,83.1,71.2,87.9z"/>
		<path d="M98.8,87.9c0,3.2-2.6,5.9-5.9,5.9c-3.2,0-5.9-2.6-5.9-5.9s2.6-5.9,5.9-5.9C96.2,82.1,98.8,84.7,98.8,87.9z"/>
		<path d="M84.6,53.5c0,3.8-3.1,6.9-6.9,6.9c-3.8,0-6.9-3.1-6.9-6.9s3.1-6.9,6.9-6.9C81.5,46.6,84.6,49.7,84.6,53.5z"/>
	</g>
	<g>
		<g>
			<path d="M226.2,95c-5,0-8.6-1.1-10.8-3.4c-2.2-2.2-3.3-5.8-3.3-10.7v-4.8h10.8v6.2c0,1.1,0.2,2,0.6,2.7c0.4,0.6,1.1,1,2,1
				c1,0,1.7-0.3,2.1-0.8c0.4-0.5,0.6-1.4,0.6-2.6c0-1.5-0.2-2.8-0.5-3.8c-0.3-1-0.9-2-1.7-2.9c-0.8-0.9-2-2-3.4-3.2l-4.9-4.2
				c-3.7-3.1-5.5-6.7-5.5-10.7c0-4.2,1.1-7.4,3.2-9.6c2.2-2.2,5.3-3.3,9.4-3.3c5,0,8.6,1.2,10.7,3.6c2.1,2.4,3.2,6.1,3.2,11h-11.1
				v-3.4c0-0.7-0.2-1.2-0.6-1.6c-0.4-0.4-1-0.6-1.7-0.6c-0.9,0-1.5,0.2-1.9,0.7c-0.4,0.4-0.6,1-0.6,1.7c0,0.7,0.2,1.4,0.6,2.2
				c0.4,0.8,1.2,1.7,2.5,2.8l6.3,5.5c1.3,1.1,2.4,2.2,3.5,3.4s1.9,2.6,2.6,4.2c0.6,1.6,1,3.5,1,5.8c0,4.6-0.9,8.3-2.8,10.9
				S230.9,95,226.2,95z"/>
			<path d="M247.7,94.5V45.2h21.9v9.5h-10.8v9.6h10.3v9.3h-10.3v11.3h11.5v9.6H247.7z"/>
			<path d="M284,94.5l-6.7-49.4h10.4l4,33.6l3.6-33.6h10.4L299,94.5H284z"/>
			<path d="M314,94.5V45.2h21.9v9.5h-10.8v9.6h10.3v9.3h-10.3v11.3h11.5v9.6H314z"/>
			<path d="M345.3,94.5V45.2h11.3l5,23.6V45.2h10.6v49.3h-10.7L356,69.8v24.7H345.3z"/>
		</g>
		<path d="M222.6,152.1c-3.7,0-6.4-0.9-8.1-2.8c-1.6-1.9-2.5-4.8-2.5-8.9v-4h8.1v5.1c0,0.9,0.1,1.7,0.4,2.2c0.3,0.5,0.8,0.8,1.5,0.8
			c0.7,0,1.3-0.2,1.5-0.7c0.3-0.4,0.4-1.1,0.4-2.1c0-1.3-0.1-2.3-0.4-3.2c-0.3-0.8-0.7-1.6-1.3-2.4c-0.6-0.8-1.5-1.7-2.5-2.7
			l-3.7-3.5c-2.7-2.6-4.1-5.5-4.1-8.9c0-3.5,0.8-6.1,2.4-8c1.6-1.8,4-2.7,7-2.7c3.8,0,6.4,1,8,3c1.6,2,2.4,5,2.4,9.1h-8.3v-2.8
			c0-0.6-0.2-1-0.5-1.3c-0.3-0.3-0.7-0.5-1.3-0.5c-0.7,0-1.1,0.2-1.4,0.5c-0.3,0.4-0.5,0.8-0.5,1.4c0,0.6,0.2,1.2,0.5,1.9
			c0.3,0.7,0.9,1.4,1.8,2.3l4.7,4.5c0.9,0.9,1.8,1.8,2.6,2.8c0.8,1,1.4,2.2,1.9,3.5c0.5,1.3,0.7,2.9,0.7,4.8c0,3.8-0.7,6.8-2.1,9
			C228.6,151,226.1,152.1,222.6,152.1z"/>
		<path d="M248.1,152.1c-3.4,0-5.9-1-7.5-2.9c-1.6-1.9-2.4-4.7-2.4-8.4v-29.9h7.9v29.6c0,0.7,0,1.3,0.1,2c0.1,0.6,0.3,1.1,0.5,1.5
			c0.3,0.4,0.7,0.6,1.4,0.6c0.6,0,1.1-0.2,1.4-0.6c0.3-0.4,0.5-0.9,0.5-1.5c0.1-0.6,0.1-1.3,0.1-2v-29.6h7.9v29.9
			c0,3.7-0.8,6.5-2.4,8.4C254,151.1,251.5,152.1,248.1,152.1z"/>
		<path d="M265,151.7v-40.8h12.4l3.4,24.9l3.4-24.9h12.6v40.8h-7.5v-29.4l-4.7,29.4h-7.3l-5-29.4v29.4L265,151.7L265,151.7z"/>
		<path d="M304.2,151.7v-40.8h12.4l3.4,24.9l3.4-24.9h12.6v40.8h-7.5v-29.4l-4.7,29.4h-7.3l-5-29.4v29.4L304.2,151.7L304.2,151.7z"
			/>
		<path d="M343.1,151.7v-40.8h7.9v40.8H343.1z"/>
		<path d="M361.6,151.7v-33h-4.9v-7.8h17.9v7.8h-4.9v33H361.6z"/>
		<g>
			<path d="M216.4,208.3v-33h-4.9v-7.8h17.9v7.8h-4.9v33H216.4z"/>
			<path d="M246.3,208.3v-40.8h12.5c2.1,0,3.7,0.5,4.7,1.4c1.1,0.9,1.8,2.3,2.1,4c0.4,1.7,0.5,3.7,0.5,6c0,2.2-0.3,4-0.9,5.3
				c-0.6,1.3-1.6,2.3-3.2,2.8c1.3,0.3,2.2,0.9,2.7,1.9c0.5,1,0.8,2.3,0.8,3.9v15.5h-8.1v-16c0-1.2-0.2-1.9-0.7-2.2
				c-0.5-0.3-1.3-0.4-2.4-0.4v18.6L246.3,208.3L246.3,208.3z M254.6,182.6h2c1.1,0,1.7-1.2,1.7-3.7c0-1.6-0.1-2.6-0.4-3.1
				c-0.3-0.5-0.7-0.7-1.4-0.7h-1.9L254.6,182.6L254.6,182.6z"/>
			<path d="M283.7,208.3v-40.8H300v7.9h-8v8h7.7v7.7H292v9.4h8.6v8L283.7,208.3L283.7,208.3z"/>
			<path d="M317.4,208.3v-40.8h8.1v16.4l3.8-16.4h8.2l-4.6,18.7l5.5,22.1H330l-4.5-19.8v19.8H317.4z"/>
			<path d="M364.3,209c-3.7,0-6.4-0.9-8.1-2.8c-1.6-1.9-2.5-4.8-2.5-8.9v-4h8.1v5.1c0,0.9,0.1,1.7,0.4,2.2s0.8,0.8,1.5,0.8
				c0.7,0,1.3-0.2,1.5-0.7c0.3-0.4,0.4-1.1,0.4-2.1c0-1.3-0.1-2.3-0.4-3.2c-0.3-0.8-0.7-1.6-1.3-2.4c-0.6-0.8-1.5-1.7-2.5-2.7
				l-3.7-3.5c-2.7-2.6-4.1-5.5-4.1-8.9c0-3.5,0.8-6.1,2.4-8c1.6-1.8,4-2.7,7-2.7c3.8,0,6.4,1,8,3c1.6,2,2.4,5,2.4,9.1h-8.3v-2.8
				c0-0.6-0.2-1-0.5-1.3c-0.3-0.3-0.7-0.5-1.3-0.5c-0.7,0-1.1,0.2-1.4,0.5s-0.5,0.8-0.5,1.4c0,0.6,0.2,1.2,0.5,1.9
				c0.3,0.7,0.9,1.4,1.8,2.3l4.7,4.5c0.9,0.9,1.8,1.8,2.6,2.8c0.8,1,1.4,2.2,1.9,3.5c0.5,1.3,0.7,2.9,0.7,4.8c0,3.8-0.7,6.8-2.1,9
				C370.3,208,367.8,209,364.3,209z"/>
		</g>
	</g>
	<g>
		<rect x="178.5" y="35.8" width="4.5" height="182.1"/>
	</g>
</g>
</svg>
