<?xml version="1.0" encoding="utf-8"?>
<!-- Generator: Adobe Illustrator 26.5.0, SVG Export Plug-In . SVG Version: 6.00 Build 0)  -->
<svg version="1.1" id="Layer_1" xmlns="http://www.w3.org/2000/svg" xmlns:xlink="http://www.w3.org/1999/xlink" x="0px" y="0px"
	 viewBox="0 0 377.6 250.8" style="enable-background:new 0 0 377.6 250.8;" xml:space="preserve">
<style type="text/css">
	.st0{display:none;}
	.st1{fill:#FFFFFF;}
</style>
<rect x="-4.9" class="st0" width="382.5" height="250.8"/>
<g>
	<g>
		<path class="st1" d="M29.8,192c0,8.2-6.6,15-15,15s-15-6.6-15-15c0-8.2,6.6-15,15-15S29.8,183.7,29.8,192z"/>
		<path class="st1" d="M68.5,192c0,7.1-5.8,13-13,13s-13-5.8-13-13s5.8-13,13-13S68.5,184.8,68.5,192z"/>
		<path class="st1" d="M108.1,192c0,6.5-5.3,12-12,12c-6.5,0-12-5.3-12-12c0-6.7,5.3-12,12-12S108.1,185.3,108.1,192z"/>
		<path class="st1" d="M146.8,192c0,5.5-4.4,10-10,10s-10-4.4-10-10c0-5.6,4.4-10,10-10S146.8,186.4,146.8,192z"/>
		<path class="st1" d="M40.4,156.3c0,7.1-5.8,13-13,13s-13-5.8-13-13s5.8-13,13-13S40.4,149.1,40.4,156.3z"/>
		<path class="st1" d="M74,156.3c0,6.1-4.9,11-11,11s-11-4.9-11-11s4.9-11,11-11S74,150.2,74,156.3z"/>
		<path class="st1" d="M102.6,156.3c0,5-4,9-9,9c-5,0-9-4-9-9s4-9,9-9C98.6,147.3,102.6,151.3,102.6,156.3z"/>
		<path class="st1" d="M132.2,156.3c0,4.4-3.5,8-8,8c-4.4,0-8-3.5-8-8c0-4.4,3.5-8,8-8C128.6,148.3,132.2,151.9,132.2,156.3z"/>
		<path class="st1" d="M55.4,121c0,6.1-4.9,11-11,11s-11-4.9-11-11c0-6,4.9-11,11-11C50.5,110,55.4,114.9,55.4,121z"/>
		<path class="st1" d="M84.9,121c0,5-4,9-9,9c-5,0-9-4-9-9c0-5,4-9,9-9C80.8,112,84.9,116,84.9,121z"/>
		<path class="st1" d="M114.2,121c0,3.9-3.1,7-7,7c-3.9,0-7-3.1-7-7c0-3.9,3.1-7,7-7C111.1,114,114.2,117.1,114.2,121z"/>
		<path class="st1" d="M69.2,85.8c0,5-4,9-9,9s-9-4-9-9c0-5,4-9,9-9S69.2,80.8,69.2,85.8z"/>
		<path class="st1" d="M97.4,85.8c0,3.3-2.7,6-6,6c-3.3,0-6-2.7-6-6c0-3.3,2.7-6,6-6C94.7,79.8,97.4,82.4,97.4,85.8z"/>
		<path class="st1" d="M82.9,50.8c0,3.9-3.1,7-7,7c-3.9,0-7-3.1-7-7s3.1-7,7-7C79.7,43.8,82.9,46.9,82.9,50.8z"/>
	</g>
	<g>
		<g>
			<path class="st1" d="M226.7,92.8c-5.1,0-8.8-1.1-11-3.4s-3.3-5.9-3.3-10.9v-4.9h11v6.3c0,1.2,0.2,2.1,0.6,2.8c0.4,0.7,1.1,1,2,1
				c1,0,1.8-0.2,2.1-0.8c0.4-0.6,0.6-1.4,0.6-2.7c0-1.6-0.1-2.9-0.6-3.9c-0.3-1-0.9-2-1.8-3c-0.9-1-2-2-3.4-3.3l-5-4.3
				c-3.8-3.2-5.6-6.8-5.6-10.9c0-4.3,1.1-7.5,3.3-9.7s5.4-3.3,9.5-3.3c5.1,0,8.8,1.2,10.9,3.7c2.1,2.4,3.2,6.2,3.2,11.2h-11.3v-3.4
				c0-0.7-0.2-1.2-0.7-1.6c-0.4-0.3-1-0.6-1.8-0.6c-0.9,0-1.6,0.2-2,0.7c-0.4,0.4-0.7,1-0.7,1.8c0,0.7,0.2,1.4,0.7,2.3
				c0.5,0.9,1.2,1.8,2.4,2.9l6.4,5.5c1.3,1.1,2.4,2.2,3.5,3.5s2,2.7,2.5,4.3c0.6,1.7,1,3.5,1,6c0,4.7-1,8.4-2.9,11.1
				C234.6,92,231.5,92.8,226.7,92.8z"/>
			<path class="st1" d="M248.6,92.4V42.3h22.3V52h-11v9.6h10.5V71h-10.5v11.5h11.6v9.7C271.5,92.4,248.6,92.4,248.6,92.4z"/>
			<path class="st1" d="M285.5,92.4l-6.8-50.2h10.6l4.1,34.1l3.7-34.1h10.6l-6.8,50.2H285.5z"/>
			<path class="st1" d="M315.9,92.4V42.3h22.3V52h-11v9.6h10.5V71h-10.5v11.5h11.6v9.7C338.8,92.4,315.9,92.4,315.9,92.4z"/>
			<path class="st1" d="M347.7,92.4V42.3h11.4l5.1,24v-24h10.7v50.2H364l-5.5-25v25L347.7,92.4L347.7,92.4L347.7,92.4z"/>
		</g>
		<path class="st1" d="M223.1,151c-3.8,0-6.5-1-8.2-2.9c-1.7-1.9-2.5-4.9-2.5-9V135h8.2v5.2c0,1,0.1,1.7,0.4,2.2
			c0.3,0.6,0.8,0.8,1.6,0.8c0.8,0,1.2-0.2,1.6-0.7c0.3-0.4,0.4-1.2,0.4-2.2c0-1.2-0.1-2.3-0.3-3.2c-0.2-0.9-0.7-1.7-1.3-2.4
			c-0.6-0.7-1.4-1.7-2.5-2.8l-3.8-3.5c-2.8-2.7-4.2-5.6-4.2-9c0-3.5,0.8-6.2,2.4-8.1c1.7-1.9,4-2.8,7.1-2.8c3.8,0,6.5,1,8.1,3.1
			c1.6,2.1,2.4,5.1,2.4,9.2h-8.4v-2.9c0-0.6-0.1-1-0.4-1.3c-0.3-0.3-0.8-0.4-1.3-0.4c-0.7,0-1.1,0.2-1.4,0.6
			c-0.3,0.3-0.4,0.9-0.4,1.4c0,0.5,0.1,1.2,0.4,1.9c0.3,0.7,0.9,1.4,1.9,2.3l4.8,4.7c1,0.9,1.9,1.9,2.7,2.9s1.4,2.2,2,3.5
			c0.6,1.3,0.8,3,0.8,4.9c0,3.9-0.7,7-2.1,9.2C229.2,149.9,226.6,151,223.1,151z"/>
		<path class="st1" d="M249,151c-3.4,0-6-1-7.6-2.9s-2.4-4.8-2.4-8.5v-30.3h8.1v30c0,0.7,0,1.3,0.1,2c0.1,0.7,0.2,1.2,0.6,1.6
			c0.3,0.4,0.8,0.7,1.3,0.7c0.7,0,1.1-0.2,1.4-0.6c0.3-0.3,0.4-0.9,0.6-1.6c0.1-0.7,0.1-1.3,0.1-2v-30.1h8.1v30.3
			c0,3.8-0.8,6.6-2.4,8.5C255,150,252.4,151,249,151z"/>
		<path class="st1" d="M266.2,150.6v-41.5h12.6l3.4,25.4l3.4-25.3h12.7v41.5h-7.4v-29.9l-4.8,29.9h-7.4l-5.1-29.9v29.9L266.2,150.6
			L266.2,150.6z"/>
		<path class="st1" d="M306.1,150.6v-41.5h12.6l3.4,25.4l3.4-25.3h12.7v41.5h-7.5v-29.9l-4.8,29.9h-7.4l-5.1-29.9v29.9L306.1,150.6
			L306.1,150.6z"/>
		<path class="st1" d="M345.6,150.6v-41.5h8v41.5H345.6z"/>
		<path class="st1" d="M364.3,150.6V117h-5v-8h18.2v8h-5v33.6H364.3z"/>
		<g>
			<path class="st1" d="M216.8,208v-33.6h-4.9v-8h18.2v8h-4.9V208H216.8z"/>
			<path class="st1" d="M247.2,208v-41.5h12.7c2.1,0,3.8,0.4,4.8,1.4c1,1,1.8,2.3,2.2,4.1c0.4,1.8,0.6,3.8,0.6,6.1
				c0,2.2-0.3,4.1-0.9,5.4s-1.7,2.3-3.2,2.8c1.3,0.2,2.2,0.9,2.8,2c0.6,1.1,0.8,2.3,0.8,4V208h-8.2v-16.3c0-1.2-0.2-2-0.8-2.2
				c-0.6-0.2-1.3-0.4-2.4-0.4V208H247.2L247.2,208z M255.7,181.9h2c1.1,0,1.8-1.2,1.8-3.8c0-1.7-0.1-2.7-0.3-3.2
				c-0.2-0.6-0.7-0.8-1.4-0.8h-2L255.7,181.9L255.7,181.9z"/>
			<path class="st1" d="M285.2,208v-41.5h16.6v8h-8.2v8.1h7.9v7.9h-7.9v9.5h8.8v8.1L285.2,208L285.2,208z"/>
			<path class="st1" d="M319.5,208v-41.5h8.2v16.6l3.9-16.6h8.3l-4.7,19.1l5.6,22.5h-8.6l-4.5-20v20L319.5,208L319.5,208z"/>
			<path class="st1" d="M367.1,208.8c-3.8,0-6.5-1-8.2-2.9s-2.5-4.9-2.5-9v-4h8.2v5.2c0,1,0.1,1.7,0.4,2.2c0.3,0.6,0.8,0.8,1.6,0.8
				c0.8,0,1.2-0.2,1.6-0.7c0.3-0.4,0.4-1.2,0.4-2.2c0-1.2-0.1-2.3-0.3-3.2c-0.2-0.9-0.7-1.7-1.3-2.4c-0.7-0.8-1.4-1.7-2.5-2.8
				l-3.8-3.5c-2.8-2.7-4.2-5.6-4.2-9c0-3.5,0.8-6.2,2.4-8.1c1.7-1.9,4-2.8,7.1-2.8c3.8,0,6.5,1,8.1,3.1c1.6,2.1,2.4,5.1,2.4,9.3
				h-8.4v-2.9c0-0.6-0.1-1-0.4-1.3c-0.3-0.3-0.8-0.4-1.3-0.4c-0.7,0-1.1,0.2-1.4,0.6c-0.3,0.3-0.4,0.9-0.4,1.4
				c0,0.6,0.1,1.2,0.4,1.9c0.3,0.7,0.9,1.4,1.9,2.3l4.8,4.5c1,0.9,1.9,1.9,2.7,2.9c0.8,1,1.4,2.2,2,3.5c0.6,1.3,0.8,3,0.8,4.9
				c0,3.9-0.7,7-2.2,9.2C373.1,207.7,370.5,208.8,367.1,208.8z"/>
		</g>
	</g>
	<g>
		<rect x="178.2" y="32.8" class="st1" width="4.5" height="185"/>
	</g>
</g>
</svg>
