<?xml version="1.0" encoding="utf-8"?>
<!-- Generator: Adobe Illustrator 22.0.1, SVG Export Plug-In . SVG Version: 6.00 Build 0)  -->
<svg version="1.1" id="Layer_1" xmlns="http://www.w3.org/2000/svg" xmlns:xlink="http://www.w3.org/1999/xlink" x="0px" y="0px"
	 viewBox="0 0 2849.7 311.8" style="enable-background:new 0 0 2849.7 311.8;" xml:space="preserve">
<style type="text/css">
	.st0{fill:#FFFFFF;}
</style>
<path class="st0" d="M37.4,267.7c-5.4,0.1-9.8-8.7-14-5c-5.3,4.7-11.8,7.8-18.7,8.6c-7.1,0.8-10.4,4.9-13,11
	c-5.6,13.1-7.1-2.7-11.3,10.8c-0.3,0.9-0.3,1.8-1.4,1.9c0,5.5-2.1,13.2,0.6,15.9c2.7,2.8,10.1,0.6,15.5,0.6
	c950.3,0,1900.6,0,2850.9,0.1c5,0,6.5-1.1,6.1-6.3c-0.5-7.1-0.1-14.2-0.1-21.3c-10.2-6.1-14.4-17.7-22.1-26.1
	c-5.5-6-11-12-17.5-16.7c-8.5-6.1-14.6-6.3-22.3,0.7c-8.7,7.9-20,11.9-28.2,20.3c-1.2,1.3-2.8,1.3-4.3,0.5
	c-20.9-10.7-44.1-14.7-65.6-23.5c-10.1-4.1-19.5-9.4-28.3-16.2c-9.4-7.2-20.3,48-31.4,44c-27.3-9.9-51-25.9-73.1-44.8
	c-12.6-10.7-25.1-21.6-40-29c-7.5-3.7-14.8-5.6-22.9-1.7c-4.3,2.1-8.7-0.2-12.9-1.6c-15.6-5.1-30.8-11.2-45.2-19.5
	c-11.2-6.5-23.1-11.5-34.6-17.4c-2.8-1.4-4.4-0.8-6.3,1.3c-3.3,3.7-7.5,6.5-12,8.4c-7.4,3.1-14,2.7-21.1-2.8
	c-15.7-12.4-29.6-6.9-42.2-22c-10.5-12.7-23.8-9.3-32.7-23.5c-0.6-1-1.4-2-1.5-3.1c-9-10.5-10.4-4-18.1-12.4
	c-12.2-13.5-40.7-9.8-49.4,6.2c-6.6,12-15.5,4.8-24.3,14.8c-6.1,7-14.9,10.6-22.9,15c-22.8,12.6-42.7,8-65.7,20.4
	c-15.9,8.6-30.8-1.3-45,10c-6.3,5-16.7,37-21.6,30.6c-0.7-0.9-10.9-13-11-14c-1-9-8-30-41.6-11.1c-6.8,2-21.5,12.2-24.4,19.1
	c-4.9,11.2-3.7,13.1-12.7,20.7c-8.7,7.4-14.7-2.7-20.2,7.4c-3.6,6.7-9,8.3-15.5,11.2c-18.1,7.9-36.2,16.2-54,24.9
	c-18.7,9.1-39.3-47.6-59.1-41.7c-20.4,6.1-41.3,5.3-62.1,7.1c-9.7,0.9-19.3,1.7-29.3,0.6c-8.8-1-17-3-23.6-8.3
	c-10.9-8.8-23.1-8-35.4-7.7c-19,0.5-38,20.1-55.3,10.7c-6.8-3.7-12.7-9.2-17.3-15.8c-1.9-2.7-3-2.6-5.6-0.6
	c-9.6,7.6-17.5-3.5-25.2,6.3c-9.2,11.7-21,21-37,21.4c-6.5,0.2-11.8,3.8-17.3,6.5c-9.2,4.5-17.7,3.6-26.5-1.2
	c-15.3-8.4-30.7-9.5-46.4-0.1c-17.5,10.5-37,10.8-56.4,9.7c-6.9-0.4-13.9-4.1-18.9-9.4c-5.4-5.7-11.8-8.1-18.9-9.1
	c-17.6-2.5-35.2-5.2-53.2-4.9c-11.1,0.2-20.8,4.4-30.6,8.4c-14.9,6.1-29.4,12.2-46.3,8.1c-9.7-2.4-19.3-0.9-29.2,3.7
	c-12.8,5.9-25.8,11.5-41.4,6.6c-10.9-3.4-21.9-7.7-33.5-8.8c-2.7-0.2-5.6-2-7.6-4c-5.3-5.4-11.7-6.3-18.5-5.5
	c-11.8,1.4-22.5-2.3-32.7-7.9c-3.6-2-7.3-3.4-11.5-3.1c-23.9,2-47.5-0.5-71.1-3.9c-6-0.9-12-2.4-17-5.9c-6.5-4.6-13.5-5.6-20.9-5.3
	c-6.3,0.3-12.5,0-18.7-0.9c-8.1-1.1-15.8,0.2-23.3,3.6c-10.8,4.9-22.3,6.7-34.1,7c-9.3,0.2-18.7,0.7-28,1.4
	c-6.6,0.5-12.9-0.9-18.9-3.3c-7.5-2.9-15.1-4.8-23.3-5c-9.4-0.2-26.3,12.4-34.3,8.2c-5.8-3-11.2-6.4-17.5-8.1
	c-5.2-1.4-10.1-3.3-15-5.6c-6.5-3-13-5.3-20.3-0.7c-5.1,3.2-10.1,0.7-13-4.6c-1.3-2.5-2.9-4.4-4.9-6.2
	c-16.8-14.8-36.1,55.9-58.3,53.9c-10.5-0.9-19.1-4.4-26.6-12.3c-6.2-6.6-15.4-8.8-23.5-12.5c-2-0.9-4.3-1-6.5-1.7
	c-24.5-7.7-49.1-14.4-75.1-15.4c-17.6-0.7-35.3-3.9-52.7-0.9c-15.6,2.7-31.1-77.5-46.7-77.4c-24.3,0.1-98.2,70.2-122.3,76.7
	c-17.1,4.6-35.8,3.9-53.7,0.1c-5.8-1.2-11.6-0.7-17.4-0.7c-24.1-0.1,1.7-0.1-22.4,0.1c-8.2,0.1-16.5,0.9-24.7,1.1
	c-2.4,0.1-3.6,1.5-4.7,3.2c-6.4,9.9-15,16.9-26.2,20.3c-4.2,1.3-5.1,4.8-4.7,8c1.9,15.2-5.1,23.8-18,29.8"/>
<path class="st0" d="M85,288.7"/>
</svg>
